<?xml version="1.0" encoding="UTF-8"?>
<svg id="Capa_2" data-name="Capa 2" xmlns="http://www.w3.org/2000/svg" viewBox="0 0 278.41 88.74">
  <defs>
    <style>
      .cls-1 {
        fill: #7878b8;
      }
    </style>
  </defs>
  <g id="Capa_1-2" data-name="Capa 1">
    <path class="cls-1" d="M256.98,1.86c-4.11,3.41-6.21,20.35-9.85,22.09-2.94-1.23-5.9-13.75-7.6-17.02-1.31-4.46-4.66-7.44-9.55-6.85-30.76-.05-62.28,0-92.64-.02C93.16.1,46.26-.04,3.91.12-.78.5,1.22,6.8.72,10.1c.22,3.39-.68,7.08,1.35,9.85,4.24,2.82,11,.77,15.87,1.67,1.78.07,3.74.69,2.95,2.85-5.05,12.34-12.28,28.39-17.34,40.28-1.22,3.11-2.84,5.93-3.29,8.98-.33,3.16-.29,6.37-.19,9.55.06,1.36.14,2.91.98,4.02,64.15,3.09,135.26.04,200.35,1.08,5.36.31,11.01-.17,13.81-5.31,3.54-5.66,2.87-10.52,2.96-17.59.28-10.8-.56-24.54.34-31.95.6.7,1.25,2.55,1.61,3.55,2.33,6.94,6.54,16.46,8.45,23.9.92,6.52.25,13.84.45,20.68.12,2.34-.23,5.73,2.72,6.39,4.46.66,9.28.2,13.76.31,2.65-.02,5.59.23,8.21-.23,3.25-.27,3.24-3.77,3.24-6.29.11-6.19-.21-13.94.21-19.93.93-3.53,2.47-7.96,4.46-13.52,5.38-16.33,15.15-37.29,16.79-47.47-.97-1.05-2.86-.7-4.14-.84-2.87-.08-7.25-.05-10.67-.02-2.15.02-4.85.2-6.5,1.68l-.11.1ZM80.24,22.58c1.37-1.59,3.84-1.05,5.83-1.17,4.57.07,9.81-.18,13.52.15,1.94.12,2.79,1.92,2.86,3.8-.03,2.31.74,6.32-2.16,7.33-4.95.71-11.89.17-16.54.28-1.34-.05-3.01-.2-3.67-1.54-.94-2.6-.99-6.34.12-8.76l.06-.09ZM36.72,66.75c-1.57-1.3,1.52-5.74,2.05-7.47,3.87-8.67,8.94-20.26,12.95-28.97.59-1.08.66-.26.71.6.04,5.4,0,10.57.02,16.28,0,6.06,0,12.25,0,15.85-.02,1.15,0,2.73-.72,3.47-1.36,1.16-3.34.88-5.06,1-2.79-.06-7.53.29-9.87-.73l-.07-.04ZM80.16,65.77c-1.02-1.94-.67-4.87-.72-6.95.04-1.83-.05-4.04,1.61-5.15.54-.39,1.61-.51,2.39-.5,5.06,0,11.5-.36,16.65.2,2.42.49,2.35,3.33,2.4,5.28-.17,2.44.67,6.04-1.42,7.73-2.72,1.27-6.72.44-9.37.67-2.36,0-4.6,0-6.94,0-1.58-.07-3.54.13-4.54-1.18l-.06-.09ZM130.54,22.58c1.37-1.59,3.84-1.05,5.83-1.17,4.57.07,9.81-.18,13.52.15,1.94.12,2.79,1.92,2.86,3.8-.03,2.31.74,6.32-2.16,7.33-4.95.71-11.89.17-16.54.28-1.34-.05-3.01-.2-3.67-1.54-.94-2.6-.99-6.34.12-8.76l.06-.09ZM130.46,65.77c-1.02-1.94-.67-4.87-.72-6.95.04-1.83-.05-4.04,1.61-5.15.54-.39,1.61-.51,2.39-.5,5.06,0,11.5-.36,16.65.2,2.4.48,2.36,3.32,2.4,5.27-.17,2.47.67,6.04-1.42,7.74-2.72,1.27-6.72.44-9.37.67-2.36,0-4.6,0-6.94,0-1.58-.07-3.54.13-4.54-1.18l-.06-.09ZM190.29,56.99c-.27,2.13-.8,4.58-1.89,6.45-1.35,2.39-5.24,4.48-7.33,3.23-1.05-.57-1.27-2.25-1.25-3.48-.02-8.19-.01-30.01,0-38.08-.46-4.43,4.31-4.76,7.46-1.51,4.1,5.06,3.16,11.5,3.6,17.65.07,5.22.01,11.03-.56,15.6l-.02.14Z"/>
  </g>
</svg>