<?xml version="1.0" encoding="UTF-8"?>
<svg id="Capa_2" data-name="Capa 2" xmlns="http://www.w3.org/2000/svg" viewBox="0 0 88.21 40.63">
  <defs>
    <style>
      .cls-1 {
        fill: #7878b8;
      }
    </style>
  </defs>
  <g id="Capa_1-2" data-name="Capa 1">
    <path class="cls-1" d="M5.55,39.37c-.8-2.79-1.41-6.32,1.06-7.9,5.33-4.69,13.43-11.56,18.94-16.52,1.21-1.12.52-1.24-.52-1.24-3.55.1-16.06.94-20.75,1.17-2.78.55-3.18-2.82-3.77-5.79C.22,7.54,0,6.21,0,5.55c-.09-1.21,1.1-.77,1.98-.93C13.95,3.93,74.21.31,80.61,0c1.34.23,1.99,5.76,1.45,7.12-.24.7-.67,1.18-1.18,1.65-2.89,2.51-10.08,8.62-15.08,12.9-3.11,2.69-5.31,4.4-5.24,4.93.55.74,3.06.15,6.86.05,5.69-.33,13.47-.81,16.76-.98.93-.05,1.87.14,2.34,1.28.68,1.5,1.24,4.89,1.56,6.81.11.7.33,1.89-.3,2.06-6.35.45-72.7,4.31-80.98,4.82-.63.05-.87-.1-1.21-1.13l-.04-.13Z"/>
  </g>
</svg>